<svg id="Layer_1" data-name="Layer 1" xmlns="http://www.w3.org/2000/svg" viewBox="0 0 182 182"><defs><style>.cls-1{fill:#2292a4;}.cls-2{fill:#fff;}</style></defs><circle class="cls-1" cx="91" cy="91" r="91"/><path d="M987.92,528.09,970,475.56H950.78l-17.85,52.53-24,70.8h16.47l12.8-38.79h43.74l13.17,38.79h17Zm-46.47,19.56,6.62-19.56L953.52,512c2.38-7.5,4.4-15,6.23-22.32h.36c1.83,7.13,3.66,14.45,6.41,22.5l5.42,15.94,6.65,19.56Z" transform="translate(-869.18 -449.25)"/><path class="cls-2" d="M1015.63,537.79c0,41.7-25.35,63.8-56.26,63.8-32,0-54.45-24.8-54.45-61.46,0-38.46,23.9-63.62,56.25-63.62C994.24,476.51,1015.63,501.85,1015.63,537.79Zm-94,2c0,25.88,14,49.06,38.64,49.06,24.81,0,38.82-22.82,38.82-50.32,0-24.08-12.58-49.24-38.64-49.24C934.57,489.27,921.63,513.17,921.63,539.77Z" transform="translate(-869.18 -449.25)"/><path d="M991.67,539.09l-3.75-11L970,475.56H950.78l-17.85,52.53-3.74,11m15.16,0,3.72-11L953.52,512c2.38-7.5,4.4-15,6.23-22.32h.36c1.83,7.13,3.66,14.45,6.41,22.5l5.42,15.94,3.74,11" transform="translate(-869.18 -449.25)"/></svg>