<svg id="Layer_1" data-name="Layer 1" xmlns="http://www.w3.org/2000/svg" viewBox="0 0 110.71 129.03"><defs><style>.cls-1{fill:#fff;}</style></defs><path d="M978.74,493.85l-17.93-52.53H941.6l-17.85,52.53-24,70.8h16.47L929,525.86h43.74l13.17,38.79h17Zm-46.47,19.56,6.62-19.56,5.45-16.12c2.38-7.5,4.4-15,6.23-22.32h.36c1.83,7.13,3.66,14.45,6.41,22.5l5.42,15.94,6.65,19.56Z" transform="translate(-895.74 -441.32)"/><path class="cls-1" d="M1006.44,506.55c0,41.69-25.34,63.8-56.25,63.8-32,0-54.45-24.8-54.45-61.47,0-38.46,23.9-63.62,56.25-63.62C985.06,445.26,1006.44,470.6,1006.44,506.55Zm-94,2c0,25.88,14,49.07,38.64,49.07,24.8,0,38.82-22.83,38.82-50.32,0-24.09-12.58-49.25-38.64-49.25C925.39,458,912.45,481.92,912.45,508.52Z" transform="translate(-895.74 -441.32)"/><path d="M982.49,504.85l-3.75-11-17.93-52.53H941.6l-17.85,52.53-3.74,11m15.16,0,3.72-11,5.45-16.12c2.38-7.5,4.4-15,6.23-22.32h.36c1.83,7.13,3.66,14.45,6.41,22.5l5.42,15.94,3.74,11" transform="translate(-895.74 -441.32)"/></svg>